<svg width="500" height="500" viewBox="0 0 500 500" fill="none" xmlns="http://www.w3.org/2000/svg">
<g filter="url(#filter0_di_47_29)">
<path fill-rule="evenodd" clip-rule="evenodd" d="M372.089 154.504C372.234 154.504 372.373 154.504 372.508 154.504H398.603C398.737 154.504 398.877 154.504 399.021 154.504C400.836 154.503 403.406 154.501 405.731 154.69C408.517 154.918 412.965 155.532 417.714 157.948C423.668 160.978 428.508 165.812 431.542 171.758C433.962 176.5 434.576 180.942 434.804 183.725C434.994 186.047 434.992 188.613 434.991 190.426C434.991 190.57 434.991 190.709 434.991 190.843V261.152H435V306.181H381.209V383.6H389.91V314.871H434.991V394.66C434.991 394.794 434.991 394.934 434.991 395.078C434.992 396.891 434.994 399.457 434.804 401.779C434.576 404.562 433.962 409.003 431.542 413.746C428.508 419.692 423.668 424.526 417.714 427.555C412.965 429.972 408.517 430.586 405.731 430.813C403.406 431.003 400.837 431.001 399.021 431C398.877 431 398.737 430.999 398.603 430.999H372.508C372.373 430.999 372.234 431 372.089 431C370.274 431.001 367.704 431.003 365.38 430.813C362.593 430.586 358.145 429.972 353.396 427.555C347.443 424.526 342.602 419.692 339.568 413.746C337.149 409.003 336.534 404.562 336.306 401.779C336.116 399.457 336.118 396.891 336.119 395.078C336.119 394.934 336.12 394.794 336.12 394.66V190.843C336.12 190.709 336.119 190.57 336.119 190.426C336.118 188.613 336.116 186.047 336.306 183.725C336.534 180.942 337.149 176.5 339.568 171.758C342.602 165.812 347.442 160.978 353.396 157.948C358.145 155.532 362.593 154.918 365.38 154.69C367.704 154.501 370.274 154.503 372.089 154.504ZM381.209 261.152H389.901V201.903H381.209V261.152Z" fill="#7BB560"/>
<path fill-rule="evenodd" clip-rule="evenodd" d="M264.507 115.795C264.652 115.795 264.791 115.795 264.926 115.795H291.03C291.164 115.795 291.304 115.795 291.448 115.795C293.264 115.793 295.833 115.792 298.158 115.981C300.945 116.209 305.392 116.822 310.141 119.239C316.095 122.269 320.936 127.103 323.969 133.048C326.389 137.791 327.004 142.233 327.231 145.016C327.421 147.337 327.42 149.903 327.418 151.716C327.418 151.861 327.418 152 327.418 152.134V237.453C327.418 237.587 327.418 237.726 327.418 237.871C327.42 239.684 327.421 242.25 327.231 244.571C327.004 247.354 326.389 251.796 323.969 256.539C322.909 258.617 321.627 260.56 320.155 262.337C321.627 264.115 322.909 266.058 323.969 268.136C326.389 272.879 327.004 277.321 327.231 280.103C327.421 282.425 327.42 284.991 327.418 286.804C327.418 286.948 327.418 287.088 327.418 287.222V394.66C327.418 394.794 327.418 394.934 327.418 395.078C327.42 396.891 327.421 399.457 327.231 401.779C327.004 404.562 326.389 409.003 323.969 413.746C320.936 419.692 316.095 424.526 310.141 427.555C305.392 429.972 300.945 430.586 298.158 430.813C295.833 431.003 293.264 431.001 291.449 431C291.304 431 291.164 431 291.03 431H264.926C264.791 431 264.651 431 264.507 431C262.692 431.001 260.122 431.003 257.798 430.813C255.011 430.586 250.563 429.972 245.814 427.555C239.861 424.526 235.02 419.692 231.986 413.746C229.566 409.003 228.952 404.562 228.724 401.779C228.534 399.457 228.536 396.891 228.537 395.078C228.537 394.934 228.538 394.794 228.538 394.66V287.222C228.538 287.088 228.537 286.948 228.537 286.804C228.536 284.991 228.534 282.425 228.724 280.103C228.952 277.321 229.566 272.879 231.986 268.136C233.047 266.058 234.328 264.115 235.801 262.337C234.328 260.56 233.047 258.617 231.986 256.539C229.566 251.796 228.952 247.354 228.724 244.571C228.534 242.25 228.536 239.684 228.537 237.871C228.537 237.726 228.538 237.587 228.538 237.453V152.134C228.538 152 228.537 151.861 228.537 151.716C228.536 149.903 228.534 147.337 228.724 145.016C228.952 142.233 229.566 137.791 231.986 133.048C235.02 127.103 239.86 122.269 245.814 119.239C250.563 116.822 255.011 116.209 257.798 115.981C260.122 115.792 262.692 115.793 264.507 115.795ZM273.627 163.194V226.393H282.329V163.194H273.627ZM273.627 298.282V383.6H282.329V298.282H273.627Z" fill="#BECE57"/>
<path d="M209.942 97.9241C197.213 90.5574 180.914 94.8911 173.537 107.604L142.828 160.527C139.127 166.906 137.276 170.095 136.921 173.225C136.493 176.992 137.503 180.78 139.749 183.836C141.616 186.375 144.81 188.224 151.197 191.92C157.584 195.616 160.778 197.465 163.913 197.819C166.544 198.117 169.186 197.716 171.582 196.685V406.905C171.582 414.638 171.582 418.504 172.908 421.532C174.504 425.174 177.416 428.082 181.063 429.675C184.094 431 187.966 431 195.709 431C203.452 431 207.324 431 210.355 429.675C214.003 428.082 216.915 425.174 218.51 421.532C219.836 418.504 219.836 414.638 219.836 406.905V125.082C219.836 120.769 219.836 117.751 219.587 115.412C219.853 108.484 216.368 101.642 209.942 97.9241Z" fill="#F2CA60"/>
<path fill-rule="evenodd" clip-rule="evenodd" d="M99.9701 68.0002C98.1547 67.9989 95.5851 67.9971 93.2604 68.1868C90.4738 68.4141 86.0262 69.028 81.2771 71.4446C75.3234 74.4741 70.4828 79.3082 67.4492 85.254C65.0294 89.9968 64.4147 94.4384 64.187 97.2213C63.9971 99.5429 63.9989 102.109 64.0002 103.922L64.0002 394.683C63.9989 396.496 63.9971 399.062 64.187 401.384C64.4147 404.166 65.0294 408.608 67.4492 413.351C70.4828 419.297 75.3234 424.131 81.2771 427.16C86.0262 429.577 90.4738 430.191 93.2604 430.418C95.5849 430.608 98.1541 430.606 99.9695 430.605H126.902C128.717 430.606 131.287 430.608 133.611 430.418C136.398 430.191 140.846 429.577 145.595 427.16C151.549 424.131 156.389 419.297 159.423 413.351C161.842 408.608 162.457 404.166 162.685 401.384C162.875 399.062 162.873 396.496 162.872 394.683L162.871 272.212L117.782 272.212V383.205H109.09V263.522H162.881V217.703H162.871L162.881 205.063C160.912 205.063 161.105 205.22 159.716 205.063C157.514 204.814 154.474 203.499 152.295 202.438C150.178 201.407 147.681 199.962 144.595 198.176L144.34 198.029C141.255 196.243 138.757 194.008 136.809 192.686C134.803 191.325 133.126 189.932 131.815 188.148C128.98 184.291 127.705 177.139 128.244 172.385C128.494 170.186 129.255 168.145 130.318 165.968C131.35 163.854 132.798 161.36 134.586 158.278L162.871 109.532L162.872 103.922C162.873 102.109 162.875 99.5428 162.685 97.2213C162.457 94.4384 161.842 89.9968 159.423 85.254C156.389 79.3082 151.549 74.4741 145.595 71.4446C140.846 69.028 136.398 68.4141 133.611 68.1868C131.287 67.9971 128.717 67.9989 126.902 68.0002L99.9701 68.0002ZM116.991 217.703H109.09V115.4H117.782L116.991 217.703Z" fill="#EC8F5E"/>
</g>
<defs>
<filter id="filter0_di_47_29" x="62" y="68" width="379" height="371" filterUnits="userSpaceOnUse" color-interpolation-filters="sRGB">
<feFlood flood-opacity="0" result="BackgroundImageFix"/>
<feColorMatrix in="SourceAlpha" type="matrix" values="0 0 0 0 0 0 0 0 0 0 0 0 0 0 0 0 0 0 127 0" result="hardAlpha"/>
<feOffset dx="2" dy="4"/>
<feGaussianBlur stdDeviation="2"/>
<feComposite in2="hardAlpha" operator="out"/>
<feColorMatrix type="matrix" values="0 0 0 0 0 0 0 0 0 0 0 0 0 0 0 0 0 0 0.1 0"/>
<feBlend mode="normal" in2="BackgroundImageFix" result="effect1_dropShadow_47_29"/>
<feBlend mode="normal" in="SourceGraphic" in2="effect1_dropShadow_47_29" result="shape"/>
<feColorMatrix in="SourceAlpha" type="matrix" values="0 0 0 0 0 0 0 0 0 0 0 0 0 0 0 0 0 0 127 0" result="hardAlpha"/>
<feOffset dx="-4" dy="-4"/>
<feComposite in2="hardAlpha" operator="arithmetic" k2="-1" k3="1"/>
<feColorMatrix type="matrix" values="0 0 0 0 0 0 0 0 0 0 0 0 0 0 0 0 0 0 0.1 0"/>
<feBlend mode="normal" in2="shape" result="effect2_innerShadow_47_29"/>
</filter>
</defs>
</svg>
