<svg width="500" height="500" viewBox="0 0 500 500" fill="none" xmlns="http://www.w3.org/2000/svg">
<g filter="url(#filter0_di_29_99)">
<path d="M445.988 304V185C445.988 179.4 445.988 176.6 444.898 174.461C443.94 172.579 442.41 171.049 440.528 170.09C438.389 169 435.589 169 429.988 169H397C391.4 169 388.6 169 386.46 170.09C384.579 171.049 383.049 172.579 382.09 174.461C381 176.6 381 179.4 381 185V304M445.988 304H476M445.988 304H381M445.988 340V423C445.988 428.601 445.988 431.401 444.898 433.54C443.94 435.422 442.41 436.952 440.528 437.911C438.389 439 435.589 439 429.988 439H397C391.4 439 388.6 439 386.46 437.911C384.579 436.952 383.049 435.422 382.09 433.54C381 431.401 381 428.601 381 423V304" stroke="#7BB560" stroke-width="60"/>
<path d="M250 136C250 130.4 250 127.6 251.09 125.461C252.049 123.579 253.579 122.049 255.46 121.09C257.6 120 260.4 120 266 120H299C304.601 120 307.401 120 309.54 121.09C311.422 122.049 312.952 123.579 313.91 125.461C315 127.6 315 130.4 315 136V244C315 249.601 315 252.401 313.91 254.54C312.952 256.422 311.422 257.952 309.54 258.911C307.401 260 304.601 260 299 260H266C260.4 260 257.6 260 255.46 258.911C253.579 257.952 252.049 256.422 251.09 254.54C250 252.401 250 249.601 250 244V136Z" stroke="#BECE57" stroke-width="60"/>
<path d="M250 307C250 301.4 250 298.6 251.09 296.461C252.049 294.579 253.579 293.049 255.46 292.09C257.6 291 260.4 291 266 291H299C304.601 291 307.401 291 309.54 292.09C311.422 293.049 312.952 294.579 313.91 296.461C315 298.6 315 301.4 315 307V423C315 428.601 315 431.401 313.91 433.54C312.952 435.422 311.422 436.952 309.54 437.911C307.401 439 304.601 439 299 439H266C260.4 439 257.6 439 255.46 437.911C253.579 436.952 252.049 435.422 251.09 433.54C250 431.401 250 428.601 250 423V307Z" stroke="#BECE57" stroke-width="60"/>
<path d="M202.493 67.3789C186.401 58.0539 165.797 63.5396 156.472 79.6316L117.65 146.624C112.971 154.699 110.632 158.736 110.183 162.698C109.642 167.466 110.919 172.262 113.759 176.13C116.119 179.344 120.156 181.684 128.23 186.363C136.305 191.042 140.342 193.382 144.305 193.831C147.631 194.208 150.971 193.7 154 192.394V438.501C154 448.289 154 453.183 155.677 457.016C157.693 461.626 161.374 465.308 165.985 467.324C169.818 469.001 174.712 469.001 184.5 469.001C194.289 469.001 199.183 469.001 203.015 467.324C207.626 465.308 211.307 461.626 213.324 457.016C215 453.183 215 448.289 215 438.501V101.757C215 96.2966 215 92.4763 214.686 89.5163C215.021 80.746 210.616 72.0858 202.493 67.3789Z" fill="#F2CA60"/>
<path fill-rule="evenodd" clip-rule="evenodd" d="M69.4717 30.0003C67.1767 29.9986 63.9284 29.9963 60.9896 30.2364C57.4669 30.5242 51.8445 31.3013 45.8409 34.3603C38.3144 38.1952 32.1952 44.3144 28.3603 51.8409C25.3013 57.8445 24.5242 63.4669 24.2364 66.9896C23.9963 69.9284 23.9986 73.1766 24.0003 75.4717L24.0003 423.529C23.9986 425.824 23.9963 429.073 24.2364 432.011C24.5242 435.534 25.3013 441.157 28.3603 447.16C32.1952 454.687 38.3144 460.806 45.8409 464.641C51.8445 467.7 57.4669 468.477 60.9896 468.765C63.9281 469.005 67.1759 469.002 69.4709 469.001H103.518C105.813 469.002 109.061 469.005 111.999 468.765C115.522 468.477 121.145 467.7 127.148 464.641C134.675 460.806 140.794 454.687 144.629 447.16C147.688 441.157 148.465 435.534 148.753 432.011C148.993 429.073 148.99 425.825 148.989 423.53L148.988 284.501H88.9885V409.001H84.0005V279.501H149.001V219.501H148.988V198.818C147.256 199.002 145.497 198.998 143.741 198.799C140.958 198.483 138.373 197.521 135.618 196.177C132.943 194.873 129.785 193.043 125.884 190.782L125.562 190.596C121.662 188.335 118.504 186.506 116.042 184.833C113.506 183.111 111.386 181.347 109.728 179.089C106.144 174.207 104.532 168.153 105.215 162.135C105.53 159.351 106.493 156.767 107.836 154.012C109.141 151.336 110.971 148.179 113.231 144.278L148.988 82.5725L148.989 75.4717C148.99 73.1767 148.993 69.9283 148.753 66.9896C148.465 63.4669 147.688 57.8445 144.629 51.8409C140.794 44.3144 134.675 38.1952 127.148 34.3603C121.145 31.3013 115.522 30.5242 111.999 30.2364C109.061 29.9963 105.812 29.9986 103.517 30.0003L69.4717 30.0003ZM88.9885 219.501H84.0005V90.0005H88.9885V219.501Z" fill="#EC8F5E"/>
</g>
<defs>
<filter id="filter0_di_29_99" x="22" y="30" width="460" height="447.001" filterUnits="userSpaceOnUse" color-interpolation-filters="sRGB">
<feFlood flood-opacity="0" result="BackgroundImageFix"/>
<feColorMatrix in="SourceAlpha" type="matrix" values="0 0 0 0 0 0 0 0 0 0 0 0 0 0 0 0 0 0 127 0" result="hardAlpha"/>
<feOffset dx="2" dy="4"/>
<feGaussianBlur stdDeviation="2"/>
<feComposite in2="hardAlpha" operator="out"/>
<feColorMatrix type="matrix" values="0 0 0 0 0 0 0 0 0 0 0 0 0 0 0 0 0 0 0.1 0"/>
<feBlend mode="normal" in2="BackgroundImageFix" result="effect1_dropShadow_29_99"/>
<feBlend mode="normal" in="SourceGraphic" in2="effect1_dropShadow_29_99" result="shape"/>
<feColorMatrix in="SourceAlpha" type="matrix" values="0 0 0 0 0 0 0 0 0 0 0 0 0 0 0 0 0 0 127 0" result="hardAlpha"/>
<feOffset dx="-4" dy="-4"/>
<feComposite in2="hardAlpha" operator="arithmetic" k2="-1" k3="1"/>
<feColorMatrix type="matrix" values="0 0 0 0 0 0 0 0 0 0 0 0 0 0 0 0 0 0 0.1 0"/>
<feBlend mode="normal" in2="shape" result="effect2_innerShadow_29_99"/>
</filter>
</defs>
</svg>
